<svg xmlns="http://www.w3.org/2000/svg" width="300" height="380" viewBox="0 0 300 380">
  <g fill="none">
    <path fill="#000000" d="M182.993256,379.309492 C176.502077,379.309492 171.88478,376.843338 170.536665,373.068614 C170.442296,372.804383 169.188549,368.866087 169.107662,368.922708 L166.957417,370.482927 C164.547651,372.231232 161.583864,373.182805 158.531692,373.188147 L30.049504,371.810372 C26.8025724,371.767611 23.6767307,370.653228 21.2260852,368.664768 L9.76709988,359.429275 C7.62054554,357.698405 6.09380144,355.395193 5.3924637,352.829799 L1.7188478,339.435818 C1.35822357,338.123929 1.21725068,336.76786 1.30093187,335.415736 L9.38962742,206.892655 C9.39662144,206.786623 9.36837287,206.681162 9.30874046,206.590677 L4.86669849,200.022656 C3.48912525,197.982595 2.74263542,195.626797 2.70971301,193.215569 L0.53924637,40.0246631 C0.496474698,37.0005077 1.57523446,34.0555491 3.59272894,31.6888129 L26.1332272,5.36010892 C28.7319046,2.30024708 32.6875312,0.51802168 36.8709705,0.522170235 L37.3158488,0.522170235 L243.274259,6.75046581 C247.827655,6.89462634 252.009599,9.13239961 254.4434,12.7271131 L267.439237,31.8272195 C267.480809,31.8942342 267.548375,31.9437827 267.627973,31.9656261 L289.197828,36.5833725 C295.715423,37.9913572 300.235112,43.5312806 299.955793,49.7697437 L288.233925,335.849829 C288.107187,339.146564 286.642098,342.27498 284.135653,344.600899 L254.874797,371.810372 C252.521355,374.002452 249.395966,375.323498 246.07834,375.528476 L183.889753,379.3032 C183.588674,379.307395 183.289841,379.309492 182.993256,379.309492 Z"/>
    <path fill="#969696" d="M243.05182,13.0479647 L37.0731879,6.81966909 C34.8637965,6.75582401 32.7520146,7.6701798 31.3773982,9.28582249 L8.83689989,35.6145265 C7.78929429,36.8409106 7.22951103,38.3682852 7.25286368,39.9365862 L9.47725495,193.140075 C9.49398156,194.392352 9.88121603,195.615951 10.5961912,196.675734 L15.0382331,203.243754 C15.8478873,204.445319 16.234431,205.853218 16.1436882,207.270127 L8.08869555,335.786917 C8.04412359,336.491449 8.1168878,337.198172 8.3043941,337.881889 L11.97801,351.27587 C12.3405847,352.602565 13.1283795,353.794369 14.2361042,354.691996 L25.6950895,363.927489 C26.9415809,364.93944 28.5323911,365.505698 30.1843156,365.525456 L158.51147,366.90323 C160.090437,366.918322 161.628099,366.432545 162.872625,365.525456 L165.01613,363.965236 C166.928171,362.584283 169.46723,362.219282 171.735875,362.999243 C174.004519,363.779204 175.683179,365.594257 176.17853,367.802873 L176.17853,367.802873 C176.910966,370.98687 180.022349,373.196229 183.50554,373.005702 L245.694127,369.230977 C247.383898,369.129353 248.9767,368.4587 250.176613,367.343615 L279.437469,340.153015 C280.731472,338.944792 281.48763,337.324272 281.554011,335.617054 L293.215214,49.5306778 C293.366691,46.3258978 291.058656,43.4721563 287.714901,42.7298824 L266.145046,38.1121359 C264.334576,37.720681 262.762609,36.6785159 261.77041,35.2118892 L248.727388,16.1054916 C247.492088,14.2745728 245.368371,13.1304899 243.05182,13.0479647 Z"/>
    <path fill="#BABABA" d="M244.575191,15.7280191 L244.521266,15.8035136 C240.319947,22.1324687 232.757527,25.821958 224.79159,25.4290613 L42.3375806,16.420052 C41.5921696,16.3815022 40.8903335,16.7495061 40.5378459,17.3637331 L24.2660866,34.6016421 C22.304578,38.024059 20.2891447,50.2290019 20.2217389,54.1043858 L20.2217389,186.848867 C20.2217389,187.056477 24.2660866,201.947766 24.2660866,201.947766 C24.3469736,202.167958 16.1167259,330.087083 16.1773911,330.288402 L24.4750446,342.241696 C24.5373117,342.445296 24.6377244,342.636993 24.7716301,342.807905 C24.7716301,342.807905 31.0673315,353.35826 30.5685286,357.340595 L29.8135837,363.380154 C29.7463929,363.957569 29.3826791,364.468471 28.8383773,364.750006 C28.2940755,365.031541 27.6371166,365.048574 27.0769084,364.795676 C26.5600266,364.552812 26.077705,364.250588 25.6411649,363.896033 L14.1821795,354.66054 C13.0759455,353.762829 12.2903562,352.570804 11.9308259,351.244414 L8.25046946,337.850433 C8.06747632,337.168125 7.99477368,336.464121 8.03477091,335.761752 L16.1234665,207.238671 C16.2137548,205.821802 15.8272462,204.414031 15.0180114,203.212298 L10.5759694,196.644278 C9.85839717,195.585592 9.47094068,194.361292 9.45703321,193.108619 L7.25960426,39.9177125 C7.23747395,38.3476747 7.79703365,36.8186878 8.84364047,35.5893617 L31.3773982,9.26065766 C32.7513339,7.64420836 34.8635763,6.72965323 37.0731879,6.79450426 L243.031598,13.0227998 L243.031598,13.0227998 C243.716933,13.0272033 244.344599,13.3816862 244.666752,13.9462741 C244.988905,14.510862 244.953758,15.1947989 244.575191,15.7280191 L244.575191,15.7280191 Z"/>
    <path fill="#777777" d="M293.16803,49.4111449 L281.459643,335.49123 C281.389471,337.198895 280.631153,338.818886 279.33636,340.027191 L250.075504,367.217791 C248.875591,368.332876 247.282789,369.003529 245.593019,369.105153 L183.404431,372.879877 L182.952812,372.879877 C179.635319,372.858395 176.778103,370.69102 176.077421,367.664466 C175.590925,365.549731 174.027973,363.790299 171.891521,362.952352 C169.570944,362.028888 166.895292,362.361858 164.915021,363.820538 L162.771517,365.380758 C161.528376,366.296856 159.987489,366.789559 158.403621,366.777406 L30.0764663,365.399632 C29.4513614,365.389727 28.8303787,365.303001 28.2295475,365.141692 L30.3326083,360.486198 C30.049504,360.555402 33.9051155,357.604825 36.8574894,357.705485 L145.738072,361.561995 C146.945152,361.602189 148.144282,361.364524 149.229692,360.869962 L158.963089,356.415787 C162.592681,354.755749 166.868393,354.885393 170.374891,356.761803 L184.691882,366.148285 C185.979332,366.834027 187.934101,366.261527 189.410287,366.148285 L244.008982,360.159056 C244.008982,359.857078 250.749562,358.007463 252.771736,355.453232 L274.341591,329.03016 C275.235893,327.781716 275.705745,326.310453 275.689707,324.80876 L283.778402,52.8461443 C283.899733,53.0789189 277.711881,46.5549366 275.393121,45.4413929 L255.656704,39.0054874 C254.194479,38.5266045 252.93214,37.6281026 252.050494,36.4386747 L245.983972,28.2034839 C245.139111,27.2851189 244.217231,26.4310089 243.227075,25.6492536 C241.393783,24.0297367 241.128627,21.3935469 242.606942,19.4838701 L246.745658,14.0923051 C247.530236,14.5923942 248.199494,15.234148 248.713907,15.9796674 L261.716485,35.0797739 C262.703299,36.5484159 264.274249,37.5915141 266.084381,37.9800206 L287.654235,42.597767 C291.010122,43.3335396 293.327545,46.1971709 293.16803,49.4111449 L293.16803,49.4111449 Z"/>
    <g fill="#777777" opacity=".7" transform="translate(35.725 51.557)">
      <ellipse cx="216.375" cy="30.57" transform="rotate(-27.26 216.375 30.57)" rx="9.437" ry="12.268"/>
      <ellipse cx="224.895" cy="11.839" transform="rotate(-27.26 224.895 11.839)" rx="5.77" ry="7.499"/>
      <ellipse cx="206.273" cy="8.317" transform="rotate(-30 206.273 8.317)" rx="4.429" ry="7.185"/>
      <ellipse cx="24.259" cy="278.692" transform="rotate(-76.69 24.26 278.692)" rx="15.166" ry="8.493"/>
      <ellipse cx="6.877" cy="293.237" transform="rotate(-76.69 6.877 293.237)" rx="7.94" ry="4.448"/>
    </g>
  </g>
</svg>
